<?xml version="1.0" encoding="UTF-8" standalone="no"?>
<!-- Generator: Adobe Illustrator 19.0.0, SVG Export Plug-In . SVG Version: 6.00 Build 0)  -->

<svg
   xmlns:dc="http://purl.org/dc/elements/1.1/"
   xmlns:cc="http://creativecommons.org/ns#"
   xmlns:rdf="http://www.w3.org/1999/02/22-rdf-syntax-ns#"
   xmlns:svg="http://www.w3.org/2000/svg"
   xmlns="http://www.w3.org/2000/svg"
   xmlns:sodipodi="http://sodipodi.sourceforge.net/DTD/sodipodi-0.dtd"
   xmlns:inkscape="http://www.inkscape.org/namespaces/inkscape"
   version="1.1"
   id="Layer_1"
   x="0px"
   y="0px"
   viewBox="0 0 512 512"
   style="enable-background:new 0 0 512 512;"
   xml:space="preserve"
   sodipodi:docname="add.svg"
   inkscape:version="0.92.3 (2405546, 2018-03-11)"><metadata
   id="metadata57"><rdf:RDF><cc:Work
       rdf:about=""><dc:format>image/svg+xml</dc:format><dc:type
         rdf:resource="http://purl.org/dc/dcmitype/StillImage" /><dc:title></dc:title></cc:Work></rdf:RDF></metadata><defs
   id="defs55" /><sodipodi:namedview
   pagecolor="#ffffff"
   bordercolor="#666666"
   borderopacity="1"
   objecttolerance="10"
   gridtolerance="10"
   guidetolerance="10"
   inkscape:pageopacity="0"
   inkscape:pageshadow="2"
   inkscape:window-width="971"
   inkscape:window-height="480"
   id="namedview53"
   showgrid="false"
   inkscape:zoom="0.4609375"
   inkscape:cx="169.22034"
   inkscape:cy="169.22034"
   inkscape:window-x="67"
   inkscape:window-y="27"
   inkscape:window-maximized="0"
   inkscape:current-layer="Layer_1" />
<circle
   style="fill:#324a5e;stroke-width:0.99999994"
   cx="254"
   cy="258"
   id="circle2"
   r="254" />
<path
   style="fill:#2B3B4E;"
   d="M275.939,511.233c101.693-7.833,186.742-75.085,220.482-167.091L339.573,186.939l-44.197,43.501  l-80.748-80.748l-35.5,35.164L150.99,213.94l57.31,58.14L89.385,324.677L275.939,511.233z"
   id="path4" />
<circle
   style="fill:#FFD300;"
   cx="182.82"
   cy="181.7"
   r="45.304"
   id="circle6" />
<path
   style="fill:#F4A200;"
   d="M182.813,136.406c-0.219,0-0.434,0.014-0.653,0.017v90.565c0.219,0.003,0.434,0.017,0.653,0.017  c25.017,0,45.299-20.282,45.299-45.299S207.831,136.406,182.813,136.406z"
   id="path8" />
<path
   style="fill:#FC6F58;"
   d="M89.385,324.679c0-51.6,41.829-93.429,93.429-93.429s93.429,41.829,93.429,93.429H89.385z"
   id="path10" />
<path
   style="fill:#F1543F;"
   d="M182.813,231.25c-0.219,0-0.434,0.016-0.653,0.017v93.412h94.082  C276.242,273.079,234.413,231.25,182.813,231.25z"
   id="path12" />
<circle
   style="fill:#FFD15D;"
   cx="304.787"
   cy="215.971"
   r="45.304"
   id="circle14" />
<path
   style="fill:#F9B54C;"
   d="M304.793,170.667c-0.079,0-0.157,0.005-0.236,0.005v90.586c0.079,0,0.157,0.005,0.236,0.005  c25.017,0,45.299-20.282,45.299-45.299C350.092,190.948,329.812,170.667,304.793,170.667z"
   id="path16" />
<path
   style="fill:#31BAFD;"
   d="M211.365,358.94c0-51.6,41.829-93.429,93.429-93.429s93.429,41.831,93.429,93.429H211.365z"
   id="path18" />
<path
   style="fill:#2B9ED8;"
   d="M304.793,265.511c-0.079,0-0.157,0.005-0.236,0.005v93.424h93.665  C398.222,307.341,356.393,265.511,304.793,265.511z"
   id="path20" />
<g
   id="g22">
</g>
<g
   id="g24">
</g>
<g
   id="g26">
</g>
<g
   id="g28">
</g>
<g
   id="g30">
</g>
<g
   id="g32">
</g>
<g
   id="g34">
</g>
<g
   id="g36">
</g>
<g
   id="g38">
</g>
<g
   id="g40">
</g>
<g
   id="g42">
</g>
<g
   id="g44">
</g>
<g
   id="g46">
</g>
<g
   id="g48">
</g>
<g
   id="g50">
</g>
</svg>